<svg width="101" height="101" viewBox="0 0 101 101" fill="none" xmlns="http://www.w3.org/2000/svg">
<circle cx="50.5" cy="50.5" r="50.5" fill="#1B24D5"/>
<path d="M78.875 61.4992C77.7475 61.4992 76.73 61.9598 75.9737 62.7135L70.57 60.0475C70.5837 59.894 70.6113 59.7544 70.6113 59.6008C70.6113 57.7863 69.4563 56.2508 67.8613 55.6646V45.3773C69.4563 44.805 70.6113 43.2696 70.6113 41.441C70.6113 41.0642 70.5425 40.7012 70.4462 40.3383L75.0662 37.1279C75.7675 37.6304 76.5925 37.9375 77.5 37.9375C79.7687 37.9375 81.625 36.0531 81.625 33.75C81.625 31.4469 79.7687 29.5625 77.5 29.5625C75.2313 29.5625 73.375 31.4469 73.375 33.75C73.375 34.1269 73.4438 34.4758 73.5263 34.8248L68.8925 38.0492C68.2188 37.5606 67.3937 37.2535 66.5 37.2535C65.4413 37.2535 64.4925 37.6723 63.7637 38.3283L54.07 32.9962C54.0975 32.7869 54.125 32.5775 54.125 32.3542C54.125 30.5396 52.97 29.0042 51.375 28.4179V18.3958C51.375 17.6281 50.7563 17 50 17C49.2437 17 48.625 17.6281 48.625 18.3958V28.4179C47.03 28.9902 45.875 30.5256 45.875 32.3542C45.875 32.5775 45.9025 32.7869 45.9437 32.9962L36.25 38.3283C35.5213 37.6583 34.5725 37.2535 33.5138 37.2535C32.4 37.2535 31.3963 37.7002 30.6538 38.44L25.2088 35.6623C25.2225 35.4808 25.25 35.3133 25.25 35.1458C25.25 32.8427 23.3937 30.9583 21.125 30.9583C18.8563 30.9583 17 32.8427 17 35.1458C17 37.449 18.8563 39.3333 21.125 39.3333C22.2388 39.3333 23.2425 38.8867 23.985 38.1469L29.43 40.9246C29.4025 41.106 29.375 41.2596 29.375 41.441C29.375 43.2556 30.53 44.791 32.125 45.3773V55.6646C30.53 56.2369 29.375 57.7723 29.375 59.6008C29.375 59.9777 29.4437 60.3267 29.5262 60.6756L24.92 63.886C24.2325 63.3696 23.4075 63.0625 22.5 63.0625C20.2313 63.0625 18.375 64.9469 18.375 67.25C18.375 69.5531 20.2313 71.4375 22.5 71.4375C24.7687 71.4375 26.625 69.5531 26.625 67.25C26.625 66.8731 26.5563 66.5242 26.4738 66.1752L31.08 62.9648C31.7675 63.4673 32.5925 63.7744 33.5 63.7744C34.5587 63.7744 35.5213 63.3556 36.25 62.6856L45.93 68.0038C45.9025 68.2131 45.875 68.4225 45.875 68.6458C45.875 70.4604 47.03 71.9958 48.625 72.5821V82.6042C48.625 83.3719 49.2437 84 50 84C50.7563 84 51.375 83.3719 51.375 82.6042V72.5821C52.97 72.0098 54.125 70.4744 54.125 68.6458C54.125 68.4225 54.0975 68.2131 54.0563 68.0038L63.75 62.6856C64.4787 63.3556 65.4413 63.7744 66.5 63.7744C67.6275 63.7744 68.6588 63.3138 69.4013 62.56L74.7912 65.226C74.7775 65.3796 74.75 65.5331 74.75 65.6867C74.75 67.9898 76.6063 69.8742 78.875 69.8742C81.1437 69.8742 83 67.9898 83 65.6867C83 63.3835 81.1437 61.4992 78.875 61.4992ZM62.375 59.5869C62.375 59.8102 62.4025 60.0196 62.4437 60.229L52.75 65.5471C52.0213 64.8771 51.0587 64.4583 50 64.4583C48.9413 64.4583 47.9787 64.8771 47.25 65.5471L37.57 60.229C37.5975 60.0196 37.6388 59.8102 37.6388 59.5869C37.6388 57.7723 36.4838 56.2369 34.8888 55.6506V45.3633C36.4838 44.791 37.6388 43.2556 37.6388 41.4271C37.6388 41.2038 37.6112 40.9804 37.57 40.771L47.25 35.4529C47.9787 36.1229 48.9413 36.5417 50 36.5417C51.0587 36.5417 52.0213 36.1229 52.75 35.4529L62.4437 40.785C62.4025 40.9944 62.375 41.2177 62.375 41.441C62.375 43.2556 63.53 44.791 65.125 45.3773V55.6646C63.53 56.2369 62.375 57.7723 62.375 59.5869ZM77.5 32.3542C78.2563 32.3542 78.875 32.9823 78.875 33.75C78.875 34.5177 78.2563 35.1458 77.5 35.1458C76.7437 35.1458 76.125 34.5177 76.125 33.75C76.125 32.9823 76.7437 32.3542 77.5 32.3542ZM66.5 40.0452C67.2563 40.0452 67.875 40.6733 67.875 41.441C67.875 42.2088 67.2563 42.8369 66.5 42.8369C65.7437 42.8369 65.125 42.2088 65.125 41.441C65.125 40.6733 65.7437 40.0452 66.5 40.0452ZM50 30.9583C50.7563 30.9583 51.375 31.5865 51.375 32.3542C51.375 33.1219 50.7563 33.75 50 33.75C49.2437 33.75 48.625 33.1219 48.625 32.3542C48.625 31.5865 49.2437 30.9583 50 30.9583ZM33.5 40.0452C34.2563 40.0452 34.875 40.6733 34.875 41.441C34.875 42.2088 34.2563 42.8369 33.5 42.8369C32.7437 42.8369 32.125 42.2088 32.125 41.441C32.125 40.6733 32.7437 40.0452 33.5 40.0452ZM21.125 36.5417C20.3687 36.5417 19.75 35.9135 19.75 35.1458C19.75 34.3781 20.3687 33.75 21.125 33.75C21.8813 33.75 22.5 34.3781 22.5 35.1458C22.5 35.9135 21.8813 36.5417 21.125 36.5417ZM22.5 68.6458C21.7437 68.6458 21.125 68.0177 21.125 67.25C21.125 66.4823 21.7437 65.8542 22.5 65.8542C23.2563 65.8542 23.875 66.4823 23.875 67.25C23.875 68.0177 23.2563 68.6458 22.5 68.6458ZM33.5 60.9827C32.7437 60.9827 32.125 60.3546 32.125 59.5869C32.125 58.8192 32.7437 58.191 33.5 58.191C34.2563 58.191 34.875 58.8192 34.875 59.5869C34.875 60.3546 34.2563 60.9827 33.5 60.9827ZM50 70.0417C49.2437 70.0417 48.625 69.4135 48.625 68.6458C48.625 67.8781 49.2437 67.25 50 67.25C50.7563 67.25 51.375 67.8781 51.375 68.6458C51.375 69.4135 50.7563 70.0417 50 70.0417ZM66.5 60.9827C65.7437 60.9827 65.125 60.3546 65.125 59.5869C65.125 58.8192 65.7437 58.191 66.5 58.191C67.2563 58.191 67.875 58.8192 67.875 59.5869C67.875 60.3546 67.2563 60.9827 66.5 60.9827ZM78.875 67.0825C78.1187 67.0825 77.5 66.4544 77.5 65.6867C77.5 64.919 78.1187 64.2908 78.875 64.2908C79.6313 64.2908 80.25 64.919 80.25 65.6867C80.25 66.4544 79.6313 67.0825 78.875 67.0825Z" fill="white"/>
</svg>
