<svg width="100" height="100" viewBox="0 0 100 100" fill="none" xmlns="http://www.w3.org/2000/svg">
<path d="M63.6686 19.746C64.4459 17.414 66.5006 15.914 68.9459 15.914H73.2506L74.5553 11.832C75.3326 9.5 77.3873 8 79.86 8C82.3327 8 84.3873 9.5 85.1373 11.832L86.4693 15.914H90.7466C93.1919 15.914 95.2739 17.414 96.0239 19.746C96.7739 22.078 95.9966 24.5233 93.9966 25.9687L90.5513 28.496L91.856 32.5507C92.6333 34.8827 91.8287 37.328 89.856 38.7734C87.856 40.2187 85.3013 40.2187 83.3287 38.7734L79.856 36.2461L76.3833 38.7734C75.3833 39.4961 74.2427 39.8554 73.106 39.8554C71.9654 39.8554 70.8287 39.496 69.856 38.7734C67.856 37.3281 67.0787 34.8828 67.8287 32.5507L69.1607 28.496L65.688 25.9687C63.688 24.5234 62.9107 22.0781 63.6607 19.746H63.6686ZM97.4456 49.664V88.555C97.4456 90.0823 96.1956 91.3323 94.6683 91.3323H5.7773C4.25 91.3323 3 90.0823 3 88.555V71.887C3 70.3597 4.25 69.1097 5.7773 69.1097H32.6363V60.7777C32.6363 59.2504 33.8863 58.0004 35.4136 58.0004H62.2456V49.6684C62.2456 48.1411 63.4956 46.8911 65.0229 46.8911H94.6639C96.1912 46.8911 97.4412 48.1411 97.4412 49.6684L97.4456 49.664ZM91.8909 52.4413H67.8089V60.7733C67.8089 62.3006 66.5589 63.5506 65.0316 63.5506H38.1996V71.8826C38.1996 73.4099 36.9496 74.6599 35.4223 74.6599L8.5553 74.6638V85.7728H91.8873V52.4408L91.8909 52.4413Z" fill="#1B24D5"/>
</svg>
