<svg width="131" height="118" viewBox="0 0 131 118" fill="none" xmlns="http://www.w3.org/2000/svg">
<g clip-path="url(#clip0_113_136)">
<path d="M51.7755 -0.715576H9.78829C4.72363 -0.715576 0.603516 3.09318 0.603516 7.77545V46.5912C0.603516 51.2734 4.72346 55.0823 9.78829 55.0823H51.7755C56.8401 55.0823 60.9603 51.2735 60.9603 46.5912V7.77545C60.9603 3.09334 56.8403 -0.715576 51.7755 -0.715576ZM121.212 -0.715576H79.225C74.1604 -0.715576 70.0402 3.09318 70.0402 7.77545V46.5912C70.0402 51.2734 74.1602 55.0823 79.225 55.0823H121.212C126.277 55.0823 130.397 51.2735 130.397 46.5912V7.77545C130.397 3.09334 126.277 -0.715576 121.212 -0.715576ZM51.7755 62.9175H9.78829C4.72363 62.9175 0.603516 66.7262 0.603516 71.4085V110.224C0.603516 114.906 4.72346 118.715 9.78829 118.715H51.7755C56.8401 118.715 60.9603 114.907 60.9603 110.224V71.4085C60.9603 66.7264 56.8403 62.9175 51.7755 62.9175ZM121.212 62.9175H79.225C74.1604 62.9175 70.0402 66.7262 70.0402 71.4085V110.224C70.0402 114.906 74.1602 118.715 79.225 118.715H121.212C126.277 118.715 130.397 114.907 130.397 110.224V71.4085C130.397 66.7264 126.277 62.9175 121.212 62.9175Z" fill="#1B24D5"/>
</g>
<defs>
<clipPath id="clip0_113_136">
<rect width="131" height="118" fill="white"/>
</clipPath>
</defs>
</svg>
