<svg width="101" height="99" viewBox="0 0 101 99" fill="none" xmlns="http://www.w3.org/2000/svg">
<path d="M50 38.8911H44.1953C42.8633 31.0317 36.0273 25.0001 27.7773 25.0001C19.5273 25.0001 12.6953 31.0274 11.3593 38.8911H5.55464C4.02734 38.8911 2.77734 40.1411 2.77734 41.6684C2.77734 43.1957 4.02734 44.4457 5.55464 44.4457H8.33194V66.6687C8.33194 68.196 9.58194 69.446 11.1092 69.446H44.4412C45.9685 69.446 47.2185 68.196 47.2185 66.6687V44.4457H49.9958C51.5231 44.4457 52.7731 43.1957 52.7731 41.6684C52.7731 40.1411 51.5231 38.8911 49.9958 38.8911H50ZM27.777 30.5552C32.945 30.5552 37.2497 34.1099 38.5 38.8872H17.055C18.305 34.1099 22.6087 30.5552 27.777 30.5552ZM27.7773 25.0001C21.6367 25.0001 16.668 20.0278 16.668 13.8915C16.668 7.75091 21.6407 2.77851 27.777 2.77851C33.9176 2.77851 38.886 7.75121 38.886 13.8875C38.886 20.0281 33.9133 24.9965 27.777 24.9965L27.7773 25.0001ZM97.222 94.4455C97.222 95.9728 95.972 97.2228 94.4447 97.2228C92.9174 97.2228 91.6674 95.9728 91.6674 94.4455C91.6674 88.3049 86.6947 83.3365 80.5584 83.3365C74.4178 83.3365 69.4494 88.3092 69.4494 94.4455C69.4494 95.9728 68.1994 97.2228 66.6721 97.2228C65.1448 97.2228 63.8948 95.9728 63.8948 94.4455C63.8948 85.2502 71.3675 77.7775 80.5628 77.7775C89.7581 77.7775 97.2308 85.2502 97.2308 94.4455H97.222ZM80.554 77.7775C74.4134 77.7775 69.445 72.8048 69.445 66.6685C69.445 60.5279 74.4177 55.5595 80.554 55.5595C86.6946 55.5595 91.663 60.5322 91.663 66.6685C91.663 72.8091 86.6903 77.7775 80.554 77.7775ZM66.667 22.2225C64.9443 22.2225 63.335 21.7225 61.917 20.9178L57.2217 24.4451C56.7217 24.8357 56.1397 24.9998 55.5537 24.9998C54.7217 24.9998 53.8857 24.6092 53.331 23.8904C52.4131 22.6677 52.6631 20.9177 53.8857 19.9998L58.0263 16.8904C57.3584 15.5584 56.9443 14.0857 56.9443 12.4998C56.9443 7.1404 61.3037 2.7771 66.667 2.7771H87.499C92.8584 2.7771 97.2217 7.1365 97.2217 12.4998C97.2217 17.8592 92.8623 22.2225 87.499 22.2225L66.667 22.2225Z" fill="#1B24D5"/>
</svg>
