<svg width="100" height="100" viewBox="0 0 100 100" fill="none" xmlns="http://www.w3.org/2000/svg">
<path d="M69.6685 23.8317C69.6685 22.3044 70.9185 21.0544 72.4458 21.0544H76.6138V16.8864C76.6138 15.3591 77.8638 14.1091 79.3911 14.1091C80.9184 14.1091 82.1684 15.3591 82.1684 16.8864V21.0544H86.3364C87.8637 21.0544 89.1137 22.3044 89.1137 23.8317C89.1137 25.359 87.8637 26.609 86.3364 26.609H82.1684V30.777C82.1684 32.3043 80.9184 33.5543 79.3911 33.5543C77.8638 33.5543 76.6138 32.3043 76.6138 30.777V26.609H72.4458C70.9185 26.609 69.6685 25.359 69.6685 23.8317ZM61.3326 19.6676C61.3326 13.527 56.3599 8.5586 50.2236 8.5586C44.083 8.5586 39.1146 13.5313 39.1146 19.6676C39.1146 25.8082 44.0873 30.7766 50.2236 30.7766C56.3642 30.7766 61.3326 25.8039 61.3326 19.6676ZM36.3326 50.2226C37.8599 50.2226 39.1099 48.9726 39.1099 47.4453C39.1099 41.3047 44.0826 36.3363 50.2189 36.3363C56.3595 36.3363 61.3279 41.309 61.3279 47.4453C61.3279 48.9726 62.5779 50.2226 64.1052 50.2226C65.6325 50.2226 66.8825 48.9726 66.8825 47.4453C66.8825 38.25 59.4098 30.7773 50.2145 30.7773C41.0192 30.7773 33.5465 38.25 33.5465 47.4453C33.5465 48.9726 34.7965 50.2226 36.3238 50.2226H36.3326ZM97.4456 80.7776V94.6686C97.4456 96.1959 96.1956 97.4459 94.6683 97.4459H5.7773C4.25 97.4459 3 96.1959 3 94.6686V72.4456C3 70.9183 4.25 69.6683 5.7773 69.6683H30.7773V61.3363H25.2226C23.6953 61.3363 22.4453 60.0863 22.4453 58.559C22.4453 57.0317 23.6953 55.7817 25.2226 55.7817H75.2226C76.7499 55.7817 77.9999 57.0317 77.9999 58.559C77.9999 60.0863 76.7499 61.3363 75.2226 61.3363H69.6679V78.0043H94.6679C96.1952 78.0043 97.4452 79.2543 97.4452 80.7816L97.4456 80.7776ZM30.7776 75.2229H8.5546V91.8909H30.7776V75.2229ZM64.1136 61.3319H36.3366V91.8869H64.1136V61.3319ZM91.8906 83.5549H69.6676V91.8869H91.8906V83.5549ZM14.1136 15.4999H18.2816V19.6679C18.2816 21.1952 19.5316 22.4452 21.0589 22.4452C22.5862 22.4452 23.8362 21.1952 23.8362 19.6679V15.4999H28.0042C29.5315 15.4999 30.7815 14.2499 30.7815 12.7226C30.7815 11.1953 29.5315 9.9453 28.0042 9.9453H23.8362V5.7773C23.8362 4.25 22.5862 3 21.0589 3C19.5316 3 18.2816 4.25 18.2816 5.7773V9.9453H14.1136C12.5863 9.9453 11.3363 11.1953 11.3363 12.7226C11.3363 14.2499 12.5863 15.4999 14.1136 15.4999Z" fill="#1B24D5"/>
</svg>
