<svg width="100" height="100" viewBox="0 0 100 100" fill="none" xmlns="http://www.w3.org/2000/svg">
<path d="M94.6666 11.332H66.8896V5.7773C66.8896 4.25 65.6396 3 64.1123 3C62.585 3 61.335 4.25 61.335 5.7773V11.332H33.558C32.0307 11.332 30.7807 12.582 30.7807 14.1093V31.5543L23.226 27.2496C22.8354 26.6949 22.4213 26.1676 21.976 25.6949C21.1987 24.9449 20.308 24.3355 19.394 23.8355C22.8393 21.9449 25.226 18.3355 25.226 14.1128C25.226 7.9722 20.2533 3.0038 14.117 3.0038C7.9725 2.99989 3 7.9726 3 14.1128C3 18.3355 5.3906 21.9448 8.832 23.8355C5.3867 25.7261 3 29.3355 3 33.5582V94.6672C3 96.1945 4.25 97.4445 5.7773 97.4445C7.3046 97.4445 8.5546 96.1945 8.5546 94.6672V69.6672H19.6636V94.6672C19.6636 96.1945 20.9136 97.4445 22.4409 97.4445C23.9682 97.4445 25.2182 96.1945 25.2182 94.6672L25.2221 34.7762L32.1674 38.7489C32.1674 38.7489 32.308 38.8036 32.3901 38.8309C32.4448 38.8309 32.5307 38.8856 32.6127 38.913C32.9174 39.0223 33.2221 39.1083 33.558 39.1083C33.9174 39.1083 34.2533 39.0536 34.5853 38.913L48.4763 33.3583C49.8943 32.7762 50.5857 31.163 50.031 29.7489C49.449 28.3309 47.8357 27.6395 46.4216 28.1942L36.3396 32.2215V16.8895H91.8946V66.8895H36.3326V47.4445C36.3326 45.9172 35.0826 44.6672 33.5553 44.6672C32.028 44.6672 30.778 45.9172 30.778 47.4445V69.6675C30.778 71.1948 32.028 72.4448 33.5553 72.4448H43.9733L39.1686 94.0538C38.8366 95.5538 39.778 97.0538 41.278 97.3858C41.5007 97.4131 41.696 97.4405 41.8874 97.4405C43.1647 97.4405 44.3054 96.5498 44.6101 95.2725L45.9695 89.1044H82.2465L83.6059 95.2725C83.9106 96.5498 85.0512 97.4405 86.3286 97.4405C86.5239 97.4405 86.7192 97.4131 86.938 97.3858C88.438 97.0537 89.3833 95.5538 89.0474 94.0538L84.2427 72.4448H94.6607C96.188 72.4448 97.438 71.1948 97.438 69.6675L97.4458 14.1125C97.4458 12.5852 96.1958 11.3352 94.6685 11.3352L94.6666 11.332ZM47.1936 83.555L49.6663 72.446H78.5573L81.03 83.555H47.1936Z" fill="#1B24D5"/>
</svg>
