<svg width="100" height="100" viewBox="0 0 100 100" fill="none" xmlns="http://www.w3.org/2000/svg">
<path d="M61.0035 14.109C61.0035 7.9684 56.0308 3 49.8945 3C43.7539 3 38.7855 7.9727 38.7855 14.109C38.7855 20.2496 43.7582 25.218 49.8945 25.218C56.0351 25.218 61.0035 20.2453 61.0035 14.109ZM49.8945 19.6637C46.8398 19.6637 44.3398 17.1637 44.3398 14.109C44.3398 11.0543 46.8398 8.5543 49.8945 8.5543C52.9492 8.5543 55.4492 11.0543 55.4492 14.109C55.4492 17.1637 52.9492 19.6637 49.8945 19.6637ZM86.0035 39.1087H80.4488V31.1634C80.4488 26.4954 78.1441 22.1907 74.2535 19.6084L70.8629 17.3584C69.5856 16.499 67.8629 16.8584 67.0309 18.1357C66.1715 19.3857 66.5309 21.1357 67.8082 21.9677L71.1676 24.2177C73.4996 25.7724 74.8903 28.3857 74.8903 31.163V39.1083H66.3083C64.9763 31.2489 58.1403 25.2173 49.8903 25.2173C41.6403 25.2173 34.8083 31.2446 33.4723 39.1083H13.7773C12.25 39.1083 11 40.3583 11 41.8856C11 43.4129 12.25 44.6629 13.7773 44.6629H19.75L27.1953 91.8859H22.1133C20.586 91.8859 19.336 93.1359 19.336 94.6632C19.336 96.1905 20.586 97.4405 22.1133 97.4405H77.6683C79.1956 97.4405 80.4456 96.1905 80.4456 94.6632C80.4456 93.1359 79.1956 91.8859 77.6683 91.8859H72.5863L80.0316 44.6629H86.0043C87.5316 44.6629 88.7816 43.4129 88.7816 41.8856C88.7816 40.3583 87.5308 39.1087 86.0035 39.1087ZM49.8945 79.3857C43.7539 79.3857 38.7855 74.413 38.7855 68.2767C38.7855 62.1361 43.7582 57.1677 49.8945 57.1677C56.0351 57.1677 61.0035 62.1404 61.0035 68.2767C61.0035 74.4173 56.0308 79.3857 49.8945 79.3857ZM49.8945 30.7727C55.0625 30.7727 59.3672 34.3274 60.6175 39.1047H39.1725C40.4225 34.3274 44.7262 30.7727 49.8945 30.7727ZM55.4492 68.2727C55.4492 71.3274 52.9492 73.8274 49.8945 73.8274C46.8398 73.8274 44.3398 71.3274 44.3398 68.2727C44.3398 65.218 46.8398 62.718 49.8945 62.718C52.9492 62.718 55.4492 65.218 55.4492 68.2727Z" fill="#1B24D5"/>
</svg>
