<svg width="148" height="133" viewBox="0 0 148 133" fill="none" xmlns="http://www.w3.org/2000/svg">
<path d="M14.7778 29.5556C22.9393 29.5556 29.5556 22.9393 29.5556 14.7778C29.5556 6.61624 22.9393 0 14.7778 0C6.61624 0 0 6.61624 0 14.7778C0 22.9393 6.61624 29.5556 14.7778 29.5556Z" fill="#1B24D5"/>
<path d="M14.7778 76.1112C22.9393 76.1112 29.5556 69.495 29.5556 61.3334C29.5556 53.1719 22.9393 46.5557 14.7778 46.5557C6.61624 46.5557 0 53.1719 0 61.3334C0 69.495 6.61624 76.1112 14.7778 76.1112Z" fill="#1B24D5"/>
<path d="M14.7778 122.667C22.9393 122.667 29.5556 116.051 29.5556 107.889C29.5556 99.7276 22.9393 93.1113 14.7778 93.1113C6.61624 93.1113 0 99.7276 0 107.889C0 116.051 6.61624 122.667 14.7778 122.667Z" fill="#1B24D5"/>
<path d="M56.9445 22.1667H138.222C140.182 22.1667 142.061 21.3882 143.447 20.0025C144.833 18.6169 145.611 16.7375 145.611 14.7778C145.611 12.8181 144.833 10.9388 143.447 9.55307C142.061 8.16738 140.182 7.38892 138.222 7.38892H56.9445C54.9849 7.38892 53.1055 8.16738 51.7198 9.55307C50.3341 10.9388 49.5557 12.8181 49.5557 14.7778C49.5557 16.7375 50.3341 18.6169 51.7198 20.0025C53.1055 21.3882 54.9849 22.1667 56.9445 22.1667Z" fill="#1B24D5"/>
<path d="M138.222 53.9446H56.9445C54.9849 53.9446 53.1055 54.723 51.7198 56.1087C50.3341 57.4944 49.5557 59.3738 49.5557 61.3335C49.5557 63.2931 50.3341 65.1725 51.7198 66.5582C53.1055 67.9439 54.9849 68.7224 56.9445 68.7224H138.222C140.182 68.7224 142.061 67.9439 143.447 66.5582C144.833 65.1725 145.611 63.2931 145.611 61.3335C145.611 59.3738 144.833 57.4944 143.447 56.1087C142.061 54.723 140.182 53.9446 138.222 53.9446Z" fill="#1B24D5"/>
<path d="M138.222 100.5H56.9445C54.9849 100.5 53.1055 101.279 51.7198 102.664C50.3341 104.05 49.5557 105.929 49.5557 107.889C49.5557 109.849 50.3341 111.728 51.7198 113.114C53.1055 114.5 54.9849 115.278 56.9445 115.278H138.222C140.182 115.278 142.061 114.5 143.447 113.114C144.833 111.728 145.611 109.849 145.611 107.889C145.611 105.929 144.833 104.05 143.447 102.664C142.061 101.279 140.182 100.5 138.222 100.5Z" fill="#1B24D5"/>
</svg>
