<svg width="160" height="65" viewBox="0 0 160 65" fill="none" xmlns="http://www.w3.org/2000/svg">
<path d="M8.46 48.2C8.06 48.2 7.61333 48.2 7.12 48.2C6.64 48.2 6.22667 48.2 5.88 48.2C5.58667 48.2 5.34667 48.2 5.16 48.2C4.98667 48.2 4.82 48.2 4.66 48.2C4.51333 48.2 4.33333 48.2 4.12 48.2C3.74667 48.2 3.53333 48.26 3.48 48.38C3.42667 48.5 3.4 48.7467 3.4 49.12C3.4 49.4667 3.4 49.7733 3.4 50.04C3.4 50.3067 3.4 50.5533 3.4 50.78C3.4 51.0067 3.4 51.24 3.4 51.48C3.4 51.5467 3.40667 51.62 3.42 51.7C3.43333 51.7667 3.45333 51.8333 3.48 51.9C3.52 51.9533 3.56 52 3.6 52.04C3.65333 52.08 3.71333 52.1 3.78 52.1C4.04667 52.1 4.36667 52.1 4.74 52.1C5.12667 52.1 5.52667 52.1 5.94 52.1C6.35333 52.1 6.74667 52.1 7.12 52.1C7.49333 52.1 7.80667 52.1 8.06 52.1C8.32667 52.1 8.54 52.16 8.7 52.28C8.86 52.4 8.96667 52.5533 9.02 52.74C9.07333 52.9133 9.07333 53.0933 9.02 53.28C8.96667 53.4533 8.86 53.6 8.7 53.72C8.54 53.84 8.32667 53.9 8.06 53.9C7.80667 53.9 7.48 53.9 7.08 53.9C6.69333 53.9 6.28667 53.9 5.86 53.9C5.43333 53.9 5.03333 53.9 4.66 53.9C4.3 53.9 4.01333 53.9 3.8 53.9C3.66667 53.9 3.56667 53.9 3.5 53.9C3.43333 53.9 3.4 53.9533 3.4 54.06C3.4 54.5267 3.4 54.9933 3.4 55.46C3.4 55.9133 3.4 56.3267 3.4 56.7C3.4 57.0733 3.4 57.36 3.4 57.56C3.4 57.88 3.44 58.0667 3.52 58.12C3.6 58.1733 3.78667 58.2 4.08 58.2C4.44 58.2 4.72667 58.2 4.94 58.2C5.15333 58.2 5.42667 58.2 5.76 58.2C6.06667 58.2 6.33333 58.2 6.56 58.2C6.8 58.2 7.06 58.2 7.34 58.2C7.63333 58.2 8.00667 58.2 8.46 58.2C8.79333 58.2 9.04 58.2933 9.2 58.48C9.37333 58.6533 9.46 58.86 9.46 59.1C9.46 59.34 9.37333 59.5533 9.2 59.74C9.04 59.9133 8.79333 60 8.46 60C8.00667 60 7.52 60 7 60C6.48 60 6.06667 60 5.76 60C5.42667 60 5.16667 60 4.98 60C4.79333 60 4.63333 60 4.5 60C4.38 60 4.24 60 4.08 60C3.54667 60 3.09333 59.92 2.72 59.76C2.36 59.6 2.08 59.34 1.88 58.98C1.69333 58.62 1.6 58.1467 1.6 57.56C1.6 57.2533 1.6 56.8867 1.6 56.46C1.6 56.0333 1.6 55.6067 1.6 55.18C1.6 54.7533 1.6 54.38 1.6 54.06C1.6 53.6467 1.67333 53.2933 1.82 53C1.98 52.7067 2.22 52.4867 2.54 52.34C2.87333 52.18 3.29333 52.1 3.8 52.1C4.12 52.1 4.46667 52.1 4.84 52.1C5.22667 52.1 5.62 52.1 6.02 52.1C6.42 52.1 6.79333 52.1 7.14 52.1C7.5 52.1 7.80667 52.1 8.06 52.1C8.32667 52.1 8.54 52.16 8.7 52.28C8.86 52.4 8.96667 52.5533 9.02 52.74C9.07333 52.9133 9.07333 53.0933 9.02 53.28C8.96667 53.4533 8.86 53.6 8.7 53.72C8.54 53.84 8.32667 53.9 8.06 53.9C7.80667 53.9 7.47333 53.9 7.06 53.9C6.66 53.9 6.24 53.9 5.8 53.9C5.37333 53.9 4.97333 53.9 4.6 53.9C4.22667 53.9 3.95333 53.9 3.78 53.9C3.47333 53.9 3.18667 53.84 2.92 53.72C2.66667 53.6 2.44 53.4333 2.24 53.22C2.04 52.9933 1.88 52.7333 1.76 52.44C1.65333 52.1467 1.6 51.8267 1.6 51.48C1.6 51.32 1.6 51.1 1.6 50.82C1.6 50.54 1.6 50.2533 1.6 49.96C1.6 49.6533 1.6 49.3733 1.6 49.12C1.6 48.52 1.68 48.02 1.84 47.62C2.01333 47.2067 2.28 46.9 2.64 46.7C3.01333 46.5 3.50667 46.4 4.12 46.4C4.42667 46.4 4.67333 46.4 4.86 46.4C5.04667 46.4 5.21333 46.4 5.36 46.4C5.50667 46.4 5.68 46.4 5.88 46.4C6.22667 46.4 6.51333 46.4 6.74 46.4C6.98 46.4 7.22667 46.4 7.48 46.4C7.73333 46.4 8.06 46.4 8.46 46.4C8.79333 46.4 9.04667 46.4933 9.22 46.68C9.39333 46.8533 9.48 47.06 9.48 47.3C9.48 47.54 9.39333 47.7533 9.22 47.94C9.04667 48.1133 8.79333 48.2 8.46 48.2ZM20.5558 46.08C20.5558 46.36 20.5558 46.6067 20.5558 46.82C20.5558 47.0333 20.5558 47.2533 20.5558 47.48C20.5558 47.7067 20.5558 47.9867 20.5558 48.32C20.5558 49.08 20.5558 49.7333 20.5558 50.28C20.5558 50.8133 20.5558 51.32 20.5558 51.8C20.5558 52.2667 20.5558 52.7733 20.5558 53.32C20.5558 53.8533 20.5558 54.5 20.5558 55.26C20.5558 56.02 20.4358 56.7067 20.1958 57.32C19.9558 57.92 19.6158 58.44 19.1758 58.88C18.7491 59.3067 18.2424 59.64 17.6558 59.88C17.0824 60.1067 16.4558 60.22 15.7758 60.22C15.0958 60.22 14.4624 60.0933 13.8758 59.84C13.2891 59.5867 12.7758 59.2267 12.3358 58.76C11.8958 58.2933 11.5558 57.7467 11.3158 57.12C11.0758 56.48 10.9558 55.78 10.9558 55.02C10.9558 54.0067 11.1624 53.1133 11.5758 52.34C12.0024 51.5533 12.5758 50.94 13.2958 50.5C14.0291 50.06 14.8491 49.84 15.7558 49.84C16.4358 49.84 17.0624 49.9667 17.6358 50.22C18.2224 50.46 18.7291 50.8133 19.1558 51.28C19.5958 51.7333 19.9358 52.2733 20.1758 52.9C20.4291 53.5267 20.5558 54.22 20.5558 54.98C20.5558 55.4333 20.5558 55.8667 20.5558 56.28C20.5558 56.6933 20.5558 57.0733 20.5558 57.42C20.5558 57.78 20.5558 58.1133 20.5558 58.42C20.5558 58.7267 20.5558 59.06 20.5558 59.42C20.5558 59.7533 20.4624 60.0067 20.2758 60.18C20.1024 60.3533 19.8958 60.44 19.6558 60.44C19.4158 60.44 19.2024 60.3533 19.0158 60.18C18.8424 60.02 18.7558 59.7667 18.7558 59.42C18.7558 59.0333 18.7558 58.68 18.7558 58.36C18.7558 58.0267 18.7558 57.7133 18.7558 57.42C18.7558 57.2733 18.7558 57.0467 18.7558 56.74C18.7558 56.42 18.7558 56.1 18.7558 55.78C18.7558 55.4467 18.7558 55.18 18.7558 54.98C18.7558 54.3267 18.6291 53.7467 18.3758 53.24C18.1224 52.7333 17.7691 52.34 17.3158 52.06C16.8624 51.78 16.3424 51.64 15.7558 51.64C15.3158 51.64 14.9091 51.7267 14.5358 51.9C14.1624 52.06 13.8424 52.2933 13.5758 52.6C13.3224 52.8933 13.1224 53.2467 12.9758 53.66C12.8291 54.0733 12.7558 54.5267 12.7558 55.02C12.7558 55.6733 12.8824 56.26 13.1358 56.78C13.3891 57.2867 13.7424 57.6867 14.1958 57.98C14.6491 58.2733 15.1758 58.42 15.7758 58.42C16.2158 58.42 16.6158 58.3533 16.9758 58.22C17.3491 58.0733 17.6691 57.8667 17.9358 57.6C18.2024 57.32 18.4024 56.9867 18.5358 56.6C18.6824 56.2 18.7558 55.7533 18.7558 55.26C18.7558 54.5533 18.7558 53.94 18.7558 53.42C18.7558 52.9 18.7558 52.4333 18.7558 52.02C18.7558 51.6067 18.7558 51.22 18.7558 50.86C18.7558 50.4867 18.7558 50.1 18.7558 49.7C18.7558 49.3 18.7558 48.84 18.7558 48.32C18.7558 48.08 18.7558 47.8467 18.7558 47.62C18.7558 47.38 18.7558 47.14 18.7558 46.9C18.7558 46.6467 18.7558 46.3733 18.7558 46.08C18.7558 45.7467 18.8424 45.5 19.0158 45.34C19.2024 45.1667 19.4158 45.08 19.6558 45.08C19.8958 45.08 20.1024 45.1667 20.2758 45.34C20.4624 45.5 20.5558 45.7467 20.5558 46.08ZM24.7955 50.84C24.7955 51.3067 24.7955 51.8133 24.7955 52.36C24.7955 52.9067 24.7955 53.4733 24.7955 54.06C24.7955 54.6467 24.7955 55.2467 24.7955 55.86C24.7955 56.42 24.8755 56.8933 25.0355 57.28C25.2088 57.6533 25.4621 57.94 25.7955 58.14C26.1288 58.3267 26.5355 58.42 27.0155 58.42C27.4555 58.42 27.8621 58.3467 28.2355 58.2C28.6221 58.04 28.9555 57.8267 29.2355 57.56C29.5155 57.2933 29.7288 56.9867 29.8755 56.64C30.0355 56.2933 30.1155 55.92 30.1155 55.52C30.1155 55.36 30.1155 55.0933 30.1155 54.72C30.1155 54.3467 30.1155 53.9267 30.1155 53.46C30.1155 52.9933 30.1155 52.5267 30.1155 52.06C30.1155 51.5933 30.1155 51.1867 30.1155 50.84C30.1155 50.5733 30.1755 50.36 30.2955 50.2C30.4155 50.04 30.5621 49.9333 30.7355 49.88C30.9221 49.8267 31.1021 49.8267 31.2755 49.88C31.4621 49.9333 31.6155 50.04 31.7355 50.2C31.8555 50.36 31.9155 50.5733 31.9155 50.84C31.9155 51.2 31.9155 51.66 31.9155 52.22C31.9155 52.7667 31.9155 53.3467 31.9155 53.96C31.9155 54.5733 31.9155 55.1467 31.9155 55.68C31.9155 56.2133 31.9155 56.6333 31.9155 56.94C31.9155 57.26 31.9155 57.54 31.9155 57.78C31.9155 58.02 31.9155 58.2533 31.9155 58.48C31.9155 58.6933 31.9155 58.9467 31.9155 59.24C31.9155 59.5733 31.8221 59.8267 31.6355 60C31.4621 60.16 31.2555 60.24 31.0155 60.24C30.7755 60.24 30.5621 60.16 30.3755 60C30.2021 59.8267 30.1155 59.5733 30.1155 59.24C30.1155 58.9333 30.1155 58.6467 30.1155 58.38C30.1155 58.1133 30.1155 57.86 30.1155 57.62C30.1155 57.38 30.1155 57.1533 30.1155 56.94C30.1155 56.4867 30.1155 55.9867 30.1155 55.44C30.1155 54.88 30.1155 54.3133 30.1155 53.74C30.1155 53.1667 30.1155 52.6267 30.1155 52.12C30.1155 51.6133 30.1155 51.1867 30.1155 50.84C30.1155 50.5733 30.1755 50.36 30.2955 50.2C30.4155 50.04 30.5621 49.9333 30.7355 49.88C30.9221 49.8267 31.1021 49.8267 31.2755 49.88C31.4621 49.9333 31.6155 50.04 31.7355 50.2C31.8555 50.36 31.9155 50.5733 31.9155 50.84C31.9155 51.2 31.9155 51.6 31.9155 52.04C31.9155 52.48 31.9155 52.92 31.9155 53.36C31.9155 53.8 31.9155 54.2133 31.9155 54.6C31.9155 54.9733 31.9155 55.28 31.9155 55.52C31.9155 56.1467 31.7888 56.7467 31.5355 57.32C31.2955 57.88 30.9555 58.38 30.5155 58.82C30.0755 59.2467 29.5555 59.5867 28.9555 59.84C28.3688 60.0933 27.7221 60.22 27.0155 60.22C26.2288 60.22 25.5288 60.0533 24.9155 59.72C24.3155 59.3733 23.8421 58.8733 23.4955 58.22C23.1621 57.5667 22.9955 56.78 22.9955 55.86C22.9955 55.3533 22.9955 54.8 22.9955 54.2C22.9955 53.6 22.9955 53.0067 22.9955 52.42C22.9955 51.82 22.9955 51.2933 22.9955 50.84C22.9955 50.5067 23.0821 50.26 23.2555 50.1C23.4421 49.9267 23.6555 49.84 23.8955 49.84C24.1355 49.84 24.3421 49.9267 24.5155 50.1C24.7021 50.26 24.7955 50.5067 24.7955 50.84ZM41.4827 60C41.136 60 40.7493 60 40.3227 60C39.9093 60 39.456 60 38.9627 60C38.4693 60 37.936 60 37.3627 60C36.7627 60 36.2893 59.9533 35.9427 59.86C35.596 59.7533 35.3427 59.5733 35.1827 59.32C35.0227 59.0667 34.9227 58.7 34.8827 58.22C34.8427 57.74 34.8227 57.12 34.8227 56.36C34.8227 55.5467 34.8227 54.7467 34.8227 53.96C34.8227 53.1733 34.8227 52.4133 34.8227 51.68C34.8227 50.9333 34.8227 50.24 34.8227 49.6C34.8227 49.32 34.8227 49.06 34.8227 48.82C34.8227 48.5667 34.8227 48.3067 34.8227 48.04C34.8227 47.7733 34.8227 47.4933 34.8227 47.2C34.8227 46.8667 34.9093 46.62 35.0827 46.46C35.2693 46.2867 35.4827 46.2 35.7227 46.2C35.9627 46.2 36.1693 46.2867 36.3427 46.46C36.5293 46.62 36.6227 46.8667 36.6227 47.2C36.6227 47.4933 36.6227 47.7667 36.6227 48.02C36.6227 48.2733 36.6227 48.5267 36.6227 48.78C36.6227 49.0333 36.6227 49.3067 36.6227 49.6C36.6227 50.0667 36.6227 50.54 36.6227 51.02C36.6227 51.5 36.6227 52 36.6227 52.52C36.6227 53.0267 36.6227 53.5667 36.6227 54.14C36.6227 54.7 36.6227 55.3 36.6227 55.94C36.6227 56.5 36.6227 56.9333 36.6227 57.24C36.6227 57.5467 36.6493 57.7733 36.7027 57.92C36.756 58.0533 36.8627 58.1333 37.0227 58.16C37.1827 58.1867 37.4227 58.2 37.7427 58.2C38.0627 58.2 38.3693 58.2 38.6627 58.2C38.956 58.2 39.2493 58.2 39.5427 58.2C39.8493 58.2 40.1627 58.2 40.4827 58.2C40.8027 58.2 41.136 58.2 41.4827 58.2C41.816 58.2 42.0627 58.2933 42.2227 58.48C42.396 58.6533 42.4827 58.86 42.4827 59.1C42.4827 59.34 42.396 59.5533 42.2227 59.74C42.0627 59.9133 41.816 60 41.4827 60ZM53.3683 50.96C53.3683 51.3067 53.3683 51.6267 53.3683 51.92C53.3683 52.2133 53.3683 52.5267 53.3683 52.86C53.3683 53.18 53.3683 53.5533 53.3683 53.98C53.3683 54.3933 53.3683 54.8867 53.3683 55.46C53.3683 56.22 53.2483 56.8933 53.0083 57.48C52.7683 58.0667 52.4283 58.5667 51.9883 58.98C51.5616 59.38 51.0549 59.6867 50.4683 59.9C49.8949 60.1133 49.2683 60.22 48.5883 60.22C47.9083 60.22 47.2749 60.0933 46.6883 59.84C46.1016 59.5867 45.5883 59.2267 45.1483 58.76C44.7083 58.2933 44.3683 57.7467 44.1283 57.12C43.8883 56.48 43.7683 55.78 43.7683 55.02C43.7683 54.0067 43.9749 53.1133 44.3883 52.34C44.8149 51.5533 45.3883 50.94 46.1083 50.5C46.8416 50.06 47.6616 49.84 48.5683 49.84C49.2483 49.84 49.8749 49.9667 50.4483 50.22C51.0349 50.46 51.5416 50.8133 51.9683 51.28C52.4083 51.7333 52.7483 52.2733 52.9883 52.9C53.2416 53.5267 53.3683 54.22 53.3683 54.98C53.3683 55.2867 53.3683 55.5867 53.3683 55.88C53.3683 56.16 53.3683 56.4333 53.3683 56.7C53.3683 56.9533 53.3683 57.1933 53.3683 57.42C53.3683 57.78 53.3683 58.1133 53.3683 58.42C53.3683 58.7267 53.3683 59.06 53.3683 59.42C53.3683 59.7533 53.2749 60.0067 53.0883 60.18C52.9149 60.3533 52.7083 60.44 52.4683 60.44C52.2283 60.44 52.0149 60.3533 51.8283 60.18C51.6549 60.0067 51.5683 59.7533 51.5683 59.42C51.5683 59.2067 51.5683 58.9867 51.5683 58.76C51.5683 58.5333 51.5683 58.3133 51.5683 58.1C51.5683 57.8733 51.5683 57.6467 51.5683 57.42C51.5683 57.2733 51.5683 57.0467 51.5683 56.74C51.5683 56.42 51.5683 56.1 51.5683 55.78C51.5683 55.4467 51.5683 55.18 51.5683 54.98C51.5683 54.3267 51.4416 53.7467 51.1883 53.24C50.9349 52.7333 50.5816 52.34 50.1283 52.06C49.6749 51.78 49.1549 51.64 48.5683 51.64C48.1283 51.64 47.7216 51.7267 47.3483 51.9C46.9749 52.06 46.6549 52.2933 46.3883 52.6C46.1349 52.8933 45.9349 53.2467 45.7883 53.66C45.6416 54.0733 45.5683 54.5267 45.5683 55.02C45.5683 55.5133 45.6416 55.9667 45.7883 56.38C45.9349 56.7933 46.1416 57.1533 46.4083 57.46C46.6749 57.7667 46.9949 58.0067 47.3683 58.18C47.7416 58.34 48.1483 58.42 48.5883 58.42C49.0283 58.42 49.4283 58.36 49.7883 58.24C50.1616 58.12 50.4816 57.94 50.7483 57.7C51.0149 57.4467 51.2149 57.1333 51.3483 56.76C51.4949 56.3867 51.5683 55.9533 51.5683 55.46C51.5683 55.0733 51.5683 54.6667 51.5683 54.24C51.5683 53.8133 51.5683 53.3933 51.5683 52.98C51.5683 52.5667 51.5683 52.1867 51.5683 51.84C51.5683 51.48 51.5683 51.1867 51.5683 50.96C51.5683 50.6267 51.6549 50.3733 51.8283 50.2C52.0149 50.0267 52.2283 49.94 52.4683 49.94C52.7083 49.94 52.9149 50.0267 53.0883 50.2C53.2749 50.3733 53.3683 50.6267 53.3683 50.96ZM55.988 59.12C55.988 58.8267 55.988 58.4933 55.988 58.12C55.988 57.7333 55.988 57.2867 55.988 56.78C55.988 56.2733 55.988 55.68 55.988 55C55.988 53.9867 56.1946 53.0933 56.608 52.32C57.0213 51.5467 57.588 50.94 58.308 50.5C59.028 50.06 59.848 49.84 60.768 49.84C61.6746 49.84 62.488 50.0667 63.208 50.52C63.9413 50.96 64.5213 51.5733 64.948 52.36C65.3746 53.1333 65.588 54.0267 65.588 55.04C65.588 55.8 65.4613 56.5 65.208 57.14C64.968 57.7667 64.628 58.3133 64.188 58.78C63.748 59.2333 63.2346 59.5867 62.648 59.84C62.0746 60.0933 61.4546 60.22 60.788 60.22C60.0813 60.22 59.4346 60.0933 58.848 59.84C58.2613 59.5867 57.7546 59.2533 57.328 58.84C56.9013 58.4267 56.568 57.98 56.328 57.5C56.1013 57.0067 55.988 56.5267 55.988 56.06C55.988 55.02 55.988 54.1733 55.988 53.52C55.988 52.8667 55.988 52.3133 55.988 51.86C55.988 51.3933 55.988 50.9533 55.988 50.54C55.988 50.1267 55.988 49.6467 55.988 49.1C55.988 48.6733 55.988 48.3067 55.988 48C55.988 47.68 55.988 47.3733 55.988 47.08C55.988 46.7867 55.988 46.46 55.988 46.1C55.988 45.7667 56.0746 45.52 56.248 45.36C56.4346 45.1867 56.648 45.1 56.888 45.1C57.128 45.1 57.3346 45.1867 57.508 45.36C57.6946 45.52 57.788 45.7667 57.788 46.1C57.788 46.4867 57.788 46.8133 57.788 47.08C57.788 47.3333 57.788 47.6 57.788 47.88C57.788 48.16 57.788 48.5267 57.788 48.98C57.788 49.5533 57.788 50.0533 57.788 50.48C57.788 50.8933 57.788 51.3267 57.788 51.78C57.788 52.2333 57.788 52.7867 57.788 53.44C57.788 54.08 57.788 54.9133 57.788 55.94C57.788 56.22 57.8613 56.5067 58.008 56.8C58.168 57.0933 58.3813 57.36 58.648 57.6C58.928 57.84 59.248 58.04 59.608 58.2C59.968 58.3467 60.3613 58.42 60.788 58.42C61.2146 58.42 61.608 58.34 61.968 58.18C62.3413 58.0067 62.6613 57.7733 62.928 57.48C63.1946 57.1733 63.4013 56.8133 63.548 56.4C63.708 55.9867 63.788 55.5333 63.788 55.04C63.788 54.5467 63.7146 54.0933 63.568 53.68C63.4213 53.2667 63.2146 52.9067 62.948 52.6C62.6813 52.2933 62.3613 52.06 61.988 51.9C61.6146 51.7267 61.208 51.64 60.768 51.64C60.168 51.64 59.6413 51.7867 59.188 52.08C58.748 52.36 58.4013 52.7533 58.148 53.26C57.908 53.7667 57.788 54.3467 57.788 55C57.788 55.76 57.788 56.3467 57.788 56.76C57.788 57.1733 57.788 57.4933 57.788 57.72C57.788 57.9333 57.788 58.14 57.788 58.34C57.788 58.5267 57.788 58.7867 57.788 59.12C57.788 59.4533 57.6946 59.7067 57.508 59.88C57.3346 60.0533 57.128 60.14 56.888 60.14C56.648 60.14 56.4346 60.0533 56.248 59.88C56.0746 59.7067 55.988 59.4533 55.988 59.12ZM81.4445 59.08C80.8712 59.44 80.2512 59.7133 79.5845 59.9C78.9179 60.0733 78.2845 60.16 77.6845 60.16C76.5645 60.1733 75.5379 59.9 74.6045 59.34C73.6712 58.78 72.9245 57.98 72.3645 56.94C71.8179 55.8867 71.5445 54.64 71.5445 53.2C71.5445 52.12 71.7045 51.1533 72.0245 50.3C72.3579 49.4333 72.8112 48.7 73.3845 48.1C73.9579 47.4867 74.6179 47.0267 75.3645 46.72C76.1245 46.4 76.9245 46.24 77.7645 46.24C78.3512 46.24 78.9645 46.32 79.6045 46.48C80.2579 46.64 80.8645 46.9 81.4245 47.26C81.7045 47.4467 81.8645 47.66 81.9045 47.9C81.9579 48.14 81.9179 48.36 81.7845 48.56C81.6645 48.76 81.4845 48.8933 81.2445 48.96C81.0045 49.0267 80.7445 48.9667 80.4645 48.78C80.0512 48.5133 79.6045 48.3267 79.1245 48.22C78.6445 48.1 78.1912 48.04 77.7645 48.04C76.9245 48.04 76.1712 48.2467 75.5045 48.66C74.8379 49.0733 74.3112 49.6667 73.9245 50.44C73.5379 51.2133 73.3445 52.1333 73.3445 53.2C73.3445 54 73.4512 54.72 73.6645 55.36C73.8779 56 74.1779 56.5467 74.5645 57C74.9645 57.44 75.4245 57.78 75.9445 58.02C76.4779 58.2467 77.0579 58.36 77.6845 58.36C78.1112 58.36 78.5712 58.3 79.0645 58.18C79.5712 58.0467 80.0312 57.84 80.4445 57.56C80.7379 57.3733 81.0045 57.3133 81.2445 57.38C81.4845 57.4333 81.6645 57.56 81.7845 57.76C81.9179 57.96 81.9645 58.1867 81.9245 58.44C81.8845 58.68 81.7245 58.8933 81.4445 59.08ZM91.0567 59.2C91.0567 58.92 91.0567 58.6267 91.0567 58.32C91.0567 58 91.0567 57.6867 91.0567 57.38C91.0567 57.06 91.0567 56.7667 91.0567 56.5C91.0567 56.18 91.0567 55.82 91.0567 55.42C91.0567 55.02 91.0567 54.5933 91.0567 54.14C91.0567 53.58 90.9634 53.1133 90.7767 52.74C90.6034 52.3667 90.3434 52.0933 89.9967 51.92C89.6501 51.7333 89.2234 51.64 88.7167 51.64C88.2767 51.64 87.8767 51.7067 87.5167 51.84C87.1567 51.9733 86.8434 52.18 86.5767 52.46C86.3234 52.7267 86.1234 53.06 85.9767 53.46C85.8301 53.86 85.7567 54.32 85.7567 54.84C85.7567 55.1467 85.7567 55.5667 85.7567 56.1C85.7567 56.62 85.7567 57.1667 85.7567 57.74C85.7567 58.3 85.7567 58.7867 85.7567 59.2C85.7567 59.4667 85.6967 59.6867 85.5767 59.86C85.4567 60.02 85.3034 60.1267 85.1167 60.18C84.9434 60.2333 84.7634 60.2333 84.5767 60.18C84.4034 60.1267 84.2567 60.02 84.1367 59.86C84.0167 59.6867 83.9567 59.4667 83.9567 59.2C83.9567 58.9867 83.9567 58.6133 83.9567 58.08C83.9567 57.5467 83.9567 56.92 83.9567 56.2C83.9567 55.4667 83.9567 54.7133 83.9567 53.94C83.9567 53.1667 83.9567 52.44 83.9567 51.76C83.9567 51.0667 83.9567 50.4867 83.9567 50.02C83.9567 49.54 83.9567 49.2467 83.9567 49.14C83.9567 48.7667 83.9567 48.3933 83.9567 48.02C83.9567 47.6467 83.9567 47.3 83.9567 46.98C83.9567 46.6467 83.9567 46.3667 83.9567 46.14C83.9567 45.8067 84.0434 45.56 84.2167 45.4C84.4034 45.2267 84.6167 45.14 84.8567 45.14C85.0967 45.14 85.3034 45.2267 85.4767 45.4C85.6634 45.56 85.7567 45.8067 85.7567 46.14C85.7567 46.3667 85.7567 46.5867 85.7567 46.8C85.7567 47 85.7567 47.2133 85.7567 47.44C85.7567 47.6533 85.7567 47.9 85.7567 48.18C85.7567 48.4467 85.7567 48.7667 85.7567 49.14C85.7567 49.2067 85.7567 49.46 85.7567 49.9C85.7567 50.34 85.7567 50.8933 85.7567 51.56C85.7567 52.2267 85.7567 52.94 85.7567 53.7C85.7567 54.46 85.7567 55.2067 85.7567 55.94C85.7567 56.6733 85.7567 57.3333 85.7567 57.92C85.7567 58.4933 85.7567 58.92 85.7567 59.2C85.7567 59.4667 85.6967 59.6867 85.5767 59.86C85.4567 60.02 85.3034 60.1267 85.1167 60.18C84.9434 60.2333 84.7634 60.2333 84.5767 60.18C84.4034 60.1267 84.2567 60.02 84.1367 59.86C84.0167 59.6867 83.9567 59.4667 83.9567 59.2C83.9567 58.8933 83.9567 58.5733 83.9567 58.24C83.9567 57.8933 83.9567 57.54 83.9567 57.18C83.9567 56.82 83.9567 56.46 83.9567 56.1C83.9567 55.7267 83.9567 55.3733 83.9567 55.04C83.9567 54.36 84.0767 53.7067 84.3167 53.08C84.5701 52.4533 84.9167 51.9 85.3567 51.42C85.8101 50.9267 86.3301 50.54 86.9167 50.26C87.5167 49.98 88.1634 49.84 88.8567 49.84C89.4301 49.84 89.9567 49.9333 90.4367 50.12C90.9301 50.3067 91.3567 50.5867 91.7167 50.96C92.0767 51.32 92.3567 51.7667 92.5567 52.3C92.7567 52.8333 92.8567 53.4467 92.8567 54.14C92.8567 54.4467 92.8567 54.8 92.8567 55.2C92.8567 55.6 92.8567 56.0333 92.8567 56.5C92.8567 56.82 92.8567 57.1267 92.8567 57.42C92.8567 57.7 92.8567 57.9867 92.8567 58.28C92.8567 58.56 92.8567 58.8667 92.8567 59.2C92.8567 59.5333 92.7634 59.7867 92.5767 59.96C92.4034 60.1333 92.1967 60.22 91.9567 60.22C91.7167 60.22 91.5034 60.1333 91.3167 59.96C91.1434 59.7867 91.0567 59.5333 91.0567 59.2ZM97.4039 54.12C97.7906 54.12 98.2039 54.12 98.6439 54.12C99.0839 54.12 99.5306 54.12 99.9839 54.12C100.451 54.12 100.904 54.12 101.344 54.12C101.504 54.12 101.644 54.1267 101.764 54.14C101.897 54.14 101.997 54.1333 102.064 54.12C102.144 54.0933 102.197 54.0533 102.224 54C102.264 53.9467 102.271 53.8533 102.244 53.72C102.151 53.2933 101.984 52.9267 101.744 52.62C101.517 52.3 101.224 52.06 100.864 51.9C100.504 51.7267 100.097 51.64 99.6439 51.64C99.0439 51.64 98.5106 51.78 98.0439 52.06C97.5906 52.34 97.2306 52.74 96.9639 53.26C96.7106 53.7667 96.5839 54.36 96.5839 55.04C96.5839 55.76 96.7239 56.3733 97.0039 56.88C97.2839 57.3867 97.6639 57.7733 98.1439 58.04C98.6372 58.2933 99.1972 58.42 99.8239 58.42C100.104 58.42 100.397 58.3933 100.704 58.34C101.011 58.2733 101.317 58.18 101.624 58.06C101.944 57.94 102.264 57.7933 102.584 57.62C102.877 57.4467 103.137 57.4 103.364 57.48C103.604 57.56 103.784 57.7067 103.904 57.92C104.024 58.12 104.051 58.34 103.984 58.58C103.931 58.82 103.757 59.02 103.464 59.18C103.051 59.42 102.637 59.62 102.224 59.78C101.811 59.9267 101.397 60.0333 100.984 60.1C100.584 60.18 100.197 60.22 99.8239 60.22C98.8906 60.22 98.0439 60.0133 97.2839 59.6C96.5239 59.1867 95.9172 58.5933 95.4639 57.82C95.0106 57.0467 94.7839 56.12 94.7839 55.04C94.7839 54 94.9972 53.0933 95.4239 52.32C95.8506 51.5333 96.4306 50.9267 97.1639 50.5C97.8972 50.06 98.7239 49.84 99.6439 49.84C100.377 49.84 101.051 49.9867 101.664 50.28C102.277 50.5733 102.784 50.9867 103.184 51.52C103.597 52.04 103.871 52.6667 104.004 53.4C104.084 53.8133 104.097 54.18 104.044 54.5C103.991 54.82 103.857 55.0867 103.644 55.3C103.431 55.5 103.131 55.6533 102.744 55.76C102.371 55.8667 101.904 55.92 101.344 55.92C100.917 55.92 100.524 55.92 100.164 55.92C99.8039 55.92 99.4639 55.92 99.1439 55.92C98.8372 55.92 98.5372 55.92 98.2439 55.92C97.9639 55.92 97.6839 55.92 97.4039 55.92C97.0706 55.92 96.8172 55.8333 96.6439 55.66C96.4706 55.4733 96.3839 55.26 96.3839 55.02C96.3839 54.78 96.4706 54.5733 96.6439 54.4C96.8172 54.2133 97.0706 54.12 97.4039 54.12ZM108.081 50.84C108.081 51.1333 108.081 51.4067 108.081 51.66C108.081 51.9133 108.081 52.1667 108.081 52.42C108.081 52.6733 108.081 52.9467 108.081 53.24C108.081 53.3733 108.081 53.6267 108.081 54C108.081 54.36 108.081 54.7867 108.081 55.28C108.081 55.7733 108.081 56.28 108.081 56.8C108.081 57.3067 108.081 57.78 108.081 58.22C108.081 58.6467 108.081 58.9733 108.081 59.2C108.081 59.4667 108.021 59.6867 107.901 59.86C107.781 60.02 107.628 60.1267 107.441 60.18C107.268 60.2333 107.088 60.2333 106.901 60.18C106.728 60.1267 106.581 60.02 106.461 59.86C106.341 59.6867 106.281 59.4667 106.281 59.2C106.281 58.92 106.281 58.6 106.281 58.24C106.281 57.88 106.281 57.5067 106.281 57.12C106.281 56.72 106.281 56.3267 106.281 55.94C106.281 55.54 106.281 55.1733 106.281 54.84C106.281 54.1067 106.388 53.44 106.601 52.84C106.828 52.2267 107.141 51.7 107.541 51.26C107.941 50.8067 108.408 50.46 108.941 50.22C109.474 49.9667 110.048 49.84 110.661 49.84C111.141 49.84 111.594 49.92 112.021 50.08C112.448 50.24 112.828 50.4933 113.161 50.84C113.494 51.1733 113.754 51.6 113.941 52.12C114.128 52.6267 114.221 53.2333 114.221 53.94C114.221 54.06 114.221 54.2867 114.221 54.62C114.221 54.94 114.221 55.32 114.221 55.76C114.221 56.1867 114.221 56.6267 114.221 57.08C114.221 57.5333 114.221 57.9467 114.221 58.32C114.221 58.6933 114.221 58.9867 114.221 59.2C114.221 59.4667 114.161 59.6867 114.041 59.86C113.921 60.02 113.768 60.1267 113.581 60.18C113.408 60.2333 113.228 60.2333 113.041 60.18C112.868 60.1267 112.721 60.02 112.601 59.86C112.481 59.6867 112.421 59.4667 112.421 59.2C112.421 58.9467 112.421 58.62 112.421 58.22C112.421 57.8067 112.421 57.38 112.421 56.94C112.421 56.4867 112.421 56.0733 112.421 55.7C112.421 55.3267 112.421 55.04 112.421 54.84C112.421 54.1067 112.528 53.44 112.741 52.84C112.968 52.2267 113.281 51.7 113.681 51.26C114.081 50.8067 114.548 50.46 115.081 50.22C115.614 49.9667 116.188 49.84 116.801 49.84C117.281 49.84 117.734 49.92 118.161 50.08C118.588 50.24 118.968 50.4933 119.301 50.84C119.634 51.1733 119.894 51.6 120.081 52.12C120.268 52.6267 120.361 53.2333 120.361 53.94C120.361 54.14 120.361 54.4067 120.361 54.74C120.361 55.06 120.361 55.38 120.361 55.7C120.361 56.02 120.361 56.2867 120.361 56.5C120.361 56.82 120.361 57.1267 120.361 57.42C120.361 57.7 120.361 57.9867 120.361 58.28C120.361 58.56 120.361 58.8667 120.361 59.2C120.361 59.5333 120.268 59.7867 120.081 59.96C119.908 60.1333 119.701 60.22 119.461 60.22C119.221 60.22 119.008 60.1333 118.821 59.96C118.648 59.7867 118.561 59.5333 118.561 59.2C118.561 58.92 118.561 58.6267 118.561 58.32C118.561 58 118.561 57.6867 118.561 57.38C118.561 57.06 118.561 56.7667 118.561 56.5C118.561 56.0333 118.561 55.6067 118.561 55.22C118.561 54.82 118.561 54.3933 118.561 53.94C118.561 53.3933 118.488 52.9533 118.341 52.62C118.208 52.2867 118.008 52.04 117.741 51.88C117.488 51.72 117.174 51.64 116.801 51.64C116.414 51.64 116.061 51.7 115.741 51.82C115.421 51.94 115.148 52.12 114.921 52.36C114.694 52.5867 114.521 52.8733 114.401 53.22C114.281 53.5667 114.221 53.9733 114.221 54.44C114.221 54.7333 114.221 55.1 114.221 55.54C114.221 55.9667 114.221 56.42 114.221 56.9C114.221 57.3667 114.221 57.8067 114.221 58.22C114.221 58.6333 114.221 58.96 114.221 59.2C114.221 59.4667 114.161 59.6867 114.041 59.86C113.921 60.02 113.768 60.1267 113.581 60.18C113.408 60.2333 113.228 60.2333 113.041 60.18C112.868 60.1267 112.721 60.02 112.601 59.86C112.481 59.6867 112.421 59.4667 112.421 59.2C112.421 58.96 112.421 58.6 112.421 58.12C112.421 57.64 112.421 57.12 112.421 56.56C112.421 56 112.421 55.48 112.421 55C112.421 54.52 112.421 54.1667 112.421 53.94C112.421 53.3933 112.348 52.9533 112.201 52.62C112.068 52.2867 111.868 52.04 111.601 51.88C111.348 51.72 111.034 51.64 110.661 51.64C110.274 51.64 109.921 51.7 109.601 51.82C109.281 51.94 109.008 52.12 108.781 52.36C108.554 52.5867 108.381 52.8733 108.261 53.22C108.141 53.5667 108.081 53.9733 108.081 54.44C108.081 54.6667 108.081 54.9867 108.081 55.4C108.081 55.8133 108.081 56.26 108.081 56.74C108.081 57.2067 108.081 57.66 108.081 58.1C108.081 58.54 108.081 58.9067 108.081 59.2C108.081 59.4667 108.021 59.6867 107.901 59.86C107.781 60.02 107.628 60.1267 107.441 60.18C107.268 60.2333 107.088 60.2333 106.901 60.18C106.728 60.1267 106.581 60.02 106.461 59.86C106.341 59.6867 106.281 59.4667 106.281 59.2C106.281 58.9733 106.281 58.64 106.281 58.2C106.281 57.76 106.281 57.2733 106.281 56.74C106.281 56.2067 106.281 55.6933 106.281 55.2C106.281 54.6933 106.281 54.26 106.281 53.9C106.281 53.54 106.281 53.32 106.281 53.24C106.281 52.9733 106.281 52.7067 106.281 52.44C106.281 52.1733 106.281 51.9067 106.281 51.64C106.281 51.3733 106.281 51.1067 106.281 50.84C106.281 50.5067 106.368 50.26 106.541 50.1C106.728 49.9267 106.941 49.84 107.181 49.84C107.421 49.84 107.628 49.9267 107.801 50.1C107.988 50.26 108.081 50.5067 108.081 50.84ZM122.923 59.2C122.923 58.92 122.923 58.6333 122.923 58.34C122.923 58.0467 122.923 57.7667 122.923 57.5C122.923 57.22 122.923 56.9533 122.923 56.7C122.923 56.2467 122.923 55.8533 122.923 55.52C122.923 55.1867 122.923 54.8533 122.923 54.52C122.923 54.1867 122.923 53.7933 122.923 53.34C122.923 53.0867 122.923 52.8333 122.923 52.58C122.923 52.3267 122.923 52.06 122.923 51.78C122.923 51.4867 122.923 51.1733 122.923 50.84C122.923 50.5067 123.01 50.26 123.183 50.1C123.37 49.9267 123.583 49.84 123.823 49.84C124.063 49.84 124.27 49.9267 124.443 50.1C124.63 50.26 124.723 50.5067 124.723 50.84C124.723 51.1867 124.723 51.4933 124.723 51.76C124.723 52.0133 124.723 52.2667 124.723 52.52C124.723 52.76 124.723 53.0333 124.723 53.34C124.723 53.6467 124.723 54.0067 124.723 54.42C124.723 54.82 124.723 55.2267 124.723 55.64C124.723 56.04 124.723 56.3933 124.723 56.7C124.723 57.0067 124.723 57.2933 124.723 57.56C124.723 57.8267 124.723 58.0933 124.723 58.36C124.723 58.6133 124.723 58.8933 124.723 59.2C124.723 59.5333 124.63 59.7867 124.443 59.96C124.27 60.1333 124.063 60.22 123.823 60.22C123.583 60.22 123.37 60.14 123.183 59.98C123.01 59.8067 122.923 59.5467 122.923 59.2ZM122.923 47.28C122.923 47.1333 122.923 47.0133 122.923 46.92C122.923 46.8267 122.923 46.7333 122.923 46.64C122.923 46.5467 122.923 46.4333 122.923 46.3C122.923 45.9933 123.01 45.7667 123.183 45.62C123.37 45.46 123.583 45.38 123.823 45.38C124.063 45.38 124.27 45.46 124.443 45.62C124.63 45.7667 124.723 45.9933 124.723 46.3C124.723 46.4333 124.723 46.5467 124.723 46.64C124.723 46.7333 124.723 46.8267 124.723 46.92C124.723 47.0133 124.723 47.1333 124.723 47.28C124.723 47.5867 124.63 47.82 124.443 47.98C124.27 48.1267 124.063 48.2 123.823 48.2C123.583 48.2 123.37 48.1267 123.183 47.98C123.01 47.82 122.923 47.5867 122.923 47.28ZM132.852 52.16C132.612 52.0533 132.372 51.96 132.132 51.88C131.892 51.8 131.652 51.74 131.412 51.7C131.186 51.66 130.959 51.64 130.732 51.64C130.426 51.64 130.139 51.68 129.872 51.76C129.606 51.84 129.386 51.9667 129.212 52.14C129.052 52.3 128.972 52.5133 128.972 52.78C128.972 52.9533 129.046 53.1133 129.192 53.26C129.339 53.3933 129.526 53.5133 129.752 53.62C129.979 53.7267 130.212 53.8267 130.452 53.92C130.692 54 130.906 54.0667 131.092 54.12C131.732 54.3333 132.312 54.5733 132.832 54.84C133.366 55.0933 133.786 55.42 134.092 55.82C134.412 56.22 134.572 56.7333 134.572 57.36C134.572 57.9333 134.419 58.44 134.112 58.88C133.806 59.3067 133.386 59.64 132.852 59.88C132.332 60.1067 131.726 60.22 131.032 60.22C130.499 60.22 129.939 60.14 129.352 59.98C128.766 59.82 128.186 59.5867 127.612 59.28C127.306 59.12 127.119 58.92 127.052 58.68C126.999 58.44 127.026 58.2133 127.132 58C127.252 57.7867 127.426 57.64 127.652 57.56C127.892 57.48 128.159 57.52 128.452 57.68C128.746 57.84 129.039 57.9733 129.332 58.08C129.626 58.1867 129.912 58.2733 130.192 58.34C130.486 58.3933 130.766 58.42 131.032 58.42C131.339 58.42 131.619 58.3867 131.872 58.32C132.139 58.24 132.352 58.1267 132.512 57.98C132.686 57.82 132.772 57.6133 132.772 57.36C132.772 57.08 132.646 56.8467 132.392 56.66C132.139 56.46 131.832 56.3 131.472 56.18C131.126 56.0467 130.812 55.9333 130.532 55.84C129.906 55.6267 129.339 55.4 128.832 55.16C128.326 54.9067 127.919 54.6 127.612 54.24C127.319 53.8667 127.172 53.38 127.172 52.78C127.172 52.1933 127.326 51.68 127.632 51.24C127.939 50.8 128.359 50.46 128.892 50.22C129.426 49.9667 130.039 49.84 130.732 49.84C131.186 49.84 131.659 49.9 132.152 50.02C132.646 50.1267 133.146 50.3067 133.652 50.56C133.946 50.7067 134.126 50.9 134.192 51.14C134.272 51.3667 134.259 51.5867 134.152 51.8C134.059 52.0133 133.892 52.1667 133.652 52.26C133.426 52.3533 133.159 52.32 132.852 52.16ZM137.751 59.2C137.751 58.88 137.751 58.5933 137.751 58.34C137.751 58.0867 137.751 57.8333 137.751 57.58C137.751 57.3267 137.751 57.0333 137.751 56.7C137.751 56.26 137.751 55.84 137.751 55.44C137.751 55.0267 137.751 54.6 137.751 54.16C137.751 53.7067 137.751 53.2067 137.751 52.66C137.751 52.1133 137.751 51.4733 137.751 50.74C137.751 50.46 137.751 50.1667 137.751 49.86C137.751 49.5533 137.751 49.26 137.751 48.98C137.751 48.6867 137.751 48.44 137.751 48.24C137.751 47.9067 137.837 47.6533 138.011 47.48C138.197 47.3067 138.411 47.22 138.651 47.22C138.891 47.22 139.097 47.3067 139.271 47.48C139.457 47.6533 139.551 47.9067 139.551 48.24C139.551 48.4667 139.551 48.6667 139.551 48.84C139.551 49.0133 139.551 49.1867 139.551 49.36C139.551 49.5333 139.551 49.7333 139.551 49.96C139.551 50.1733 139.551 50.4333 139.551 50.74C139.551 51.2333 139.551 51.7 139.551 52.14C139.551 52.5667 139.551 53.0067 139.551 53.46C139.551 53.9133 139.551 54.4 139.551 54.92C139.551 55.44 139.551 56.0333 139.551 56.7C139.551 57.06 139.551 57.36 139.551 57.6C139.551 57.84 139.551 58.08 139.551 58.32C139.551 58.5467 139.551 58.84 139.551 59.2C139.551 59.5333 139.457 59.7867 139.271 59.96C139.097 60.1333 138.891 60.22 138.651 60.22C138.411 60.22 138.197 60.14 138.011 59.98C137.837 59.8067 137.751 59.5467 137.751 59.2ZM140.971 51.84C140.771 51.84 140.577 51.84 140.391 51.84C140.204 51.84 140.017 51.84 139.831 51.84C139.431 51.84 139.057 51.84 138.711 51.84C138.377 51.84 138.011 51.84 137.611 51.84C137.491 51.84 137.377 51.84 137.271 51.84C137.164 51.84 137.044 51.84 136.911 51.84C136.791 51.84 136.664 51.84 136.531 51.84C136.197 51.84 135.944 51.7533 135.771 51.58C135.597 51.3933 135.511 51.18 135.511 50.94C135.511 50.7 135.597 50.4933 135.771 50.32C135.944 50.1333 136.197 50.04 136.531 50.04C136.704 50.04 136.844 50.04 136.951 50.04C137.057 50.04 137.157 50.04 137.251 50.04C137.357 50.04 137.477 50.04 137.611 50.04C137.984 50.04 138.351 50.04 138.711 50.04C139.084 50.04 139.457 50.04 139.831 50.04C140.044 50.04 140.231 50.04 140.391 50.04C140.564 50.04 140.757 50.04 140.971 50.04C141.304 50.04 141.557 50.1333 141.731 50.32C141.904 50.4933 141.991 50.7 141.991 50.94C141.991 51.18 141.904 51.3933 141.731 51.58C141.557 51.7533 141.304 51.84 140.971 51.84ZM148.569 51.78C147.956 51.6867 147.436 51.7067 147.009 51.84C146.583 51.96 146.236 52.1667 145.969 52.46C145.716 52.74 145.529 53.08 145.409 53.48C145.289 53.88 145.229 54.3133 145.229 54.78C145.229 55.0867 145.229 55.44 145.229 55.84C145.229 56.24 145.229 56.6467 145.229 57.06C145.229 57.4733 145.229 57.8667 145.229 58.24C145.229 58.6133 145.229 58.9333 145.229 59.2C145.229 59.4667 145.169 59.68 145.049 59.84C144.929 60 144.776 60.1067 144.589 60.16C144.416 60.2267 144.236 60.2333 144.049 60.18C143.876 60.1267 143.729 60.02 143.609 59.86C143.489 59.6867 143.429 59.4667 143.429 59.2C143.429 58.92 143.429 58.5733 143.429 58.16C143.429 57.7333 143.429 57.2933 143.429 56.84C143.429 56.3733 143.429 55.9333 143.429 55.52C143.429 55.1067 143.429 54.7733 143.429 54.52C143.429 54.1467 143.429 53.7533 143.429 53.34C143.429 52.9267 143.429 52.5133 143.429 52.1C143.429 51.6733 143.429 51.28 143.429 50.92C143.429 50.5733 143.516 50.32 143.689 50.16C143.876 49.9867 144.089 49.9 144.329 49.9C144.569 49.9 144.776 49.9867 144.949 50.16C145.136 50.3333 145.229 50.5867 145.229 50.92C145.229 51.36 145.229 51.7733 145.229 52.16C145.229 52.5333 145.229 52.9133 145.229 53.3C145.229 53.6733 145.229 54.08 145.229 54.52C145.229 54.6933 145.229 54.98 145.229 55.38C145.229 55.78 145.229 56.2267 145.229 56.72C145.229 57.2133 145.229 57.6867 145.229 58.14C145.229 58.58 145.229 58.9333 145.229 59.2C145.229 59.4667 145.169 59.68 145.049 59.84C144.929 60 144.776 60.1067 144.589 60.16C144.416 60.2267 144.236 60.2333 144.049 60.18C143.876 60.1267 143.729 60.02 143.609 59.86C143.489 59.6867 143.429 59.4667 143.429 59.2C143.429 58.8267 143.429 58.3733 143.429 57.84C143.429 57.3067 143.429 56.7933 143.429 56.3C143.429 55.8067 143.429 55.4333 143.429 55.18C143.429 54.6067 143.496 54.0467 143.629 53.5C143.776 52.9533 143.989 52.4467 144.269 51.98C144.549 51.5133 144.903 51.1133 145.329 50.78C145.756 50.4467 146.256 50.2067 146.829 50.06C147.416 49.9133 148.076 49.8867 148.809 49.98C149.143 50.0333 149.383 50.16 149.529 50.36C149.676 50.56 149.729 50.78 149.689 51.02C149.663 51.26 149.549 51.46 149.349 51.62C149.163 51.7667 148.903 51.82 148.569 51.78ZM152.616 62.12C152.682 61.9733 152.749 61.82 152.816 61.66C152.896 61.5 152.969 61.34 153.036 61.18C153.116 61.02 153.189 60.86 153.256 60.7C153.336 60.5533 153.409 60.4 153.476 60.24C153.529 60.1067 153.582 59.98 153.636 59.86C153.689 59.74 153.742 59.6267 153.796 59.52C153.849 59.4 153.896 59.2867 153.936 59.18C154.029 58.98 154.062 58.78 154.036 58.58C154.009 58.3667 153.942 58.14 153.836 57.9C153.729 57.66 153.596 57.3933 153.436 57.1C153.276 56.8067 153.109 56.48 152.936 56.12C152.802 55.84 152.642 55.5067 152.456 55.12C152.269 54.72 152.069 54.3 151.856 53.86C151.656 53.4067 151.449 52.9533 151.236 52.5C151.022 52.0467 150.822 51.62 150.636 51.22C150.502 50.9133 150.482 50.6467 150.576 50.42C150.669 50.1933 150.822 50.0333 151.036 49.94C151.249 49.8333 151.469 49.82 151.696 49.9C151.936 49.9667 152.129 50.1533 152.276 50.46C152.462 50.8733 152.656 51.3067 152.856 51.76C153.069 52.2 153.276 52.64 153.476 53.08C153.689 53.52 153.882 53.9333 154.056 54.32C154.242 54.7067 154.402 55.04 154.536 55.32C154.856 55.9733 155.116 56.52 155.316 56.96C155.529 57.3867 155.676 57.76 155.756 58.08C155.849 58.3867 155.876 58.68 155.836 58.96C155.809 59.24 155.716 59.56 155.556 59.92C155.516 60.0133 155.462 60.12 155.396 60.24C155.342 60.36 155.289 60.4867 155.236 60.62C155.182 60.7533 155.129 60.88 155.076 61C155.009 61.16 154.942 61.32 154.876 61.48C154.809 61.64 154.736 61.8 154.656 61.96C154.589 62.12 154.522 62.2733 154.456 62.42C154.389 62.58 154.322 62.7333 154.256 62.88C154.136 63.12 153.982 63.2867 153.796 63.38C153.622 63.4867 153.442 63.5267 153.256 63.5C153.082 63.4733 152.922 63.3933 152.776 63.26C152.642 63.14 152.556 62.98 152.516 62.78C152.476 62.58 152.509 62.36 152.616 62.12ZM159.496 51.2C159.389 51.44 159.276 51.6867 159.156 51.94C159.049 52.1933 158.936 52.4467 158.816 52.7C158.709 52.9533 158.602 53.1933 158.496 53.42C158.402 53.6467 158.316 53.8467 158.236 54.02C157.956 54.66 157.642 55.3533 157.296 56.1C156.962 56.8467 156.642 57.56 156.336 58.24C156.029 58.92 155.776 59.48 155.576 59.92C155.522 60.04 155.469 60.16 155.416 60.28C155.362 60.4133 155.302 60.54 155.236 60.66C155.182 60.78 155.129 60.9067 155.076 61.04C155.009 61.2 154.942 61.3533 154.876 61.5C154.809 61.66 154.742 61.8133 154.676 61.96C154.609 62.12 154.536 62.2733 154.456 62.42C154.389 62.58 154.322 62.7333 154.256 62.88C154.136 63.12 153.982 63.2867 153.796 63.38C153.622 63.4867 153.442 63.5267 153.256 63.5C153.082 63.4733 152.922 63.3933 152.776 63.26C152.642 63.14 152.556 62.98 152.516 62.78C152.476 62.58 152.509 62.36 152.616 62.12C152.682 61.9733 152.749 61.82 152.816 61.66C152.896 61.5 152.976 61.34 153.056 61.18C153.136 61.02 153.209 60.86 153.276 60.7C153.356 60.54 153.429 60.3867 153.496 60.24C153.549 60.1067 153.596 59.9867 153.636 59.88C153.689 59.7733 153.736 59.6667 153.776 59.56C153.829 59.4533 153.882 59.3333 153.936 59.2C154.069 58.8933 154.242 58.5133 154.456 58.06C154.669 57.5933 154.896 57.0867 155.136 56.54C155.389 55.9933 155.642 55.44 155.896 54.88C156.149 54.32 156.382 53.7933 156.596 53.3C156.702 53.0733 156.822 52.8 156.956 52.48C157.102 52.16 157.256 51.8267 157.416 51.48C157.576 51.12 157.722 50.7867 157.856 50.48C157.989 50.1733 158.169 49.98 158.396 49.9C158.636 49.82 158.862 49.8267 159.076 49.92C159.302 50.0133 159.462 50.1733 159.556 50.4C159.662 50.6267 159.642 50.8933 159.496 51.2Z" fill="white"/>
<path d="M88.125 31.2158C87.3392 31.2158 86.63 31.539 86.1029 32.0677L82.3367 30.1975C82.3462 30.0898 82.3654 29.9919 82.3654 29.8842C82.3654 28.6113 81.5604 27.5342 80.4487 27.1229V19.9065C81.5604 19.505 82.3654 18.4279 82.3654 17.1452C82.3654 16.8808 82.3175 16.6262 82.2504 16.3717L85.4704 14.1196C85.9592 14.4721 86.5342 14.6875 87.1667 14.6875C88.7479 14.6875 90.0417 13.3656 90.0417 11.75C90.0417 10.1344 88.7479 8.8125 87.1667 8.8125C85.5854 8.8125 84.2917 10.1344 84.2917 11.75C84.2917 12.0144 84.3396 12.2592 84.3971 12.504L81.1675 14.7658C80.6979 14.4231 80.1229 14.2077 79.5 14.2077C78.7621 14.2077 78.1008 14.5015 77.5929 14.9617L70.8367 11.2212C70.8558 11.0744 70.875 10.9275 70.875 10.7708C70.875 9.49792 70.07 8.42083 68.9583 8.00958V0.979167C68.9583 0.440625 68.5271 0 68 0C67.4729 0 67.0417 0.440625 67.0417 0.979167V8.00958C65.93 8.41104 65.125 9.48812 65.125 10.7708C65.125 10.9275 65.1442 11.0744 65.1729 11.2212L58.4167 14.9617C57.9087 14.4917 57.2475 14.2077 56.5096 14.2077C55.7333 14.2077 55.0338 14.521 54.5162 15.04L50.7213 13.0915C50.7308 12.9642 50.75 12.8467 50.75 12.7292C50.75 11.1135 49.4562 9.79167 47.875 9.79167C46.2938 9.79167 45 11.1135 45 12.7292C45 14.3448 46.2938 15.6667 47.875 15.6667C48.6512 15.6667 49.3508 15.3533 49.8683 14.8344L53.6633 16.7829C53.6442 16.9102 53.625 17.0179 53.625 17.1452C53.625 18.4181 54.43 19.4952 55.5417 19.9065V27.1229C54.43 27.5244 53.625 28.6015 53.625 29.8842C53.625 30.1485 53.6729 30.3933 53.7304 30.6381L50.52 32.8902C50.0408 32.5279 49.4658 32.3125 48.8333 32.3125C47.2521 32.3125 45.9583 33.6344 45.9583 35.25C45.9583 36.8656 47.2521 38.1875 48.8333 38.1875C50.4146 38.1875 51.7083 36.8656 51.7083 35.25C51.7083 34.9856 51.6604 34.7408 51.6029 34.496L54.8133 32.244C55.2925 32.5965 55.8675 32.8119 56.5 32.8119C57.2379 32.8119 57.9087 32.5181 58.4167 32.0481L65.1633 35.7788C65.1442 35.9256 65.125 36.0725 65.125 36.2292C65.125 37.5021 65.93 38.5792 67.0417 38.9904V46.0208C67.0417 46.5594 67.4729 47 68 47C68.5271 47 68.9583 46.5594 68.9583 46.0208V38.9904C70.07 38.589 70.875 37.5119 70.875 36.2292C70.875 36.0725 70.8558 35.9256 70.8271 35.7788L77.5833 32.0481C78.0912 32.5181 78.7621 32.8119 79.5 32.8119C80.2858 32.8119 81.0046 32.4888 81.5221 31.96L85.2787 33.8302C85.2692 33.9379 85.25 34.0456 85.25 34.1533C85.25 35.769 86.5438 37.0908 88.125 37.0908C89.7062 37.0908 91 35.769 91 34.1533C91 32.5377 89.7062 31.2158 88.125 31.2158ZM76.625 29.8744C76.625 30.031 76.6442 30.1779 76.6729 30.3248L69.9167 34.0554C69.4087 33.5854 68.7379 33.2917 68 33.2917C67.2621 33.2917 66.5912 33.5854 66.0833 34.0554L59.3367 30.3248C59.3558 30.1779 59.3846 30.031 59.3846 29.8744C59.3846 28.6015 58.5796 27.5244 57.4679 27.1131V19.8967C58.5796 19.4952 59.3846 18.4181 59.3846 17.1354C59.3846 16.9788 59.3654 16.8221 59.3367 16.6752L66.0833 12.9446C66.5912 13.4146 67.2621 13.7083 68 13.7083C68.7379 13.7083 69.4087 13.4146 69.9167 12.9446L76.6729 16.685C76.6442 16.8319 76.625 16.9885 76.625 17.1452C76.625 18.4181 77.43 19.4952 78.5417 19.9065V27.1229C77.43 27.5244 76.625 28.6015 76.625 29.8744ZM87.1667 10.7708C87.6937 10.7708 88.125 11.2115 88.125 11.75C88.125 12.2885 87.6937 12.7292 87.1667 12.7292C86.6396 12.7292 86.2083 12.2885 86.2083 11.75C86.2083 11.2115 86.6396 10.7708 87.1667 10.7708ZM79.5 16.166C80.0271 16.166 80.4583 16.6067 80.4583 17.1452C80.4583 17.6838 80.0271 18.1244 79.5 18.1244C78.9729 18.1244 78.5417 17.6838 78.5417 17.1452C78.5417 16.6067 78.9729 16.166 79.5 16.166ZM68 9.79167C68.5271 9.79167 68.9583 10.2323 68.9583 10.7708C68.9583 11.3094 68.5271 11.75 68 11.75C67.4729 11.75 67.0417 11.3094 67.0417 10.7708C67.0417 10.2323 67.4729 9.79167 68 9.79167ZM56.5 16.166C57.0271 16.166 57.4583 16.6067 57.4583 17.1452C57.4583 17.6838 57.0271 18.1244 56.5 18.1244C55.9729 18.1244 55.5417 17.6838 55.5417 17.1452C55.5417 16.6067 55.9729 16.166 56.5 16.166ZM47.875 13.7083C47.3479 13.7083 46.9167 13.2677 46.9167 12.7292C46.9167 12.1906 47.3479 11.75 47.875 11.75C48.4021 11.75 48.8333 12.1906 48.8333 12.7292C48.8333 13.2677 48.4021 13.7083 47.875 13.7083ZM48.8333 36.2292C48.3062 36.2292 47.875 35.7885 47.875 35.25C47.875 34.7115 48.3062 34.2708 48.8333 34.2708C49.3604 34.2708 49.7917 34.7115 49.7917 35.25C49.7917 35.7885 49.3604 36.2292 48.8333 36.2292ZM56.5 30.8535C55.9729 30.8535 55.5417 30.4129 55.5417 29.8744C55.5417 29.3358 55.9729 28.8952 56.5 28.8952C57.0271 28.8952 57.4583 29.3358 57.4583 29.8744C57.4583 30.4129 57.0271 30.8535 56.5 30.8535ZM68 37.2083C67.4729 37.2083 67.0417 36.7677 67.0417 36.2292C67.0417 35.6906 67.4729 35.25 68 35.25C68.5271 35.25 68.9583 35.6906 68.9583 36.2292C68.9583 36.7677 68.5271 37.2083 68 37.2083ZM79.5 30.8535C78.9729 30.8535 78.5417 30.4129 78.5417 29.8744C78.5417 29.3358 78.9729 28.8952 79.5 28.8952C80.0271 28.8952 80.4583 29.3358 80.4583 29.8744C80.4583 30.4129 80.0271 30.8535 79.5 30.8535ZM88.125 35.1325C87.5979 35.1325 87.1667 34.6919 87.1667 34.1533C87.1667 33.6148 87.5979 33.1742 88.125 33.1742C88.6521 33.1742 89.0833 33.6148 89.0833 34.1533C89.0833 34.6919 88.6521 35.1325 88.125 35.1325Z" fill="white"/>
</svg>
